<?xml version="1.0" encoding="UTF-8"?>
<svg version="1.1" xmlns="http://www.w3.org/2000/svg" width="1607" height="231">
<path d="M0 0 C0.92941406 -0.07025391 1.85882812 -0.14050781 2.81640625 -0.21289062 C6.67589526 -0.29204563 9.56111234 -0.25150037 12.52099609 2.39746094 C14.4484334 5.10909192 16.07759238 7.93563886 17.75 10.8125 C19.18137756 13.02150733 20.64296609 15.20880186 22.10636902 17.39671326 C23.81742552 19.9563655 25.51178606 22.52640909 27.20239258 25.09960938 C29.71127689 28.91691968 32.22129198 32.73347656 34.7331543 36.54882812 C38.07791196 41.62979055 41.42124453 46.71168891 44.76422119 51.79382324 C49.77326421 59.40830763 54.78455799 67.02130765 59.79803467 74.63287354 C61.46601076 77.16596546 63.13272826 79.69988152 64.79931641 82.23388672 C76.37056506 99.8125333 88.0667815 117.3081764 99.75 134.8125 C99.75238835 134.14012645 99.75477671 133.4677529 99.75723743 132.77500439 C99.81633619 116.42559231 99.8918531 100.07634729 99.98571491 83.72709942 C100.03070832 75.82076537 100.0701147 67.91447672 100.09643555 60.00805664 C100.11938704 53.11797969 100.15275289 46.228046 100.19870156 39.33808261 C100.2226725 35.68881869 100.24137578 32.03969697 100.24761391 28.39035606 C100.25476745 24.31951994 100.28516825 20.24917977 100.31762695 16.1784668 C100.31547432 14.35722542 100.31547432 14.35722542 100.3132782 12.49919128 C100.33208542 10.83962402 100.33208542 10.83962402 100.35127258 9.14653015 C100.35588155 8.18325648 100.36049051 7.21998281 100.36523914 6.22751904 C100.81620344 3.39696248 101.47169505 2.49966947 103.75 0.8125 C105.87890625 0.42431641 105.87890625 0.42431641 108.3125 0.4140625 C109.19164062 0.41019531 110.07078125 0.40632813 110.9765625 0.40234375 C111.89179687 0.41394531 112.80703125 0.42554687 113.75 0.4375 C115.12285156 0.42009766 115.12285156 0.42009766 116.5234375 0.40234375 C117.40257812 0.40621094 118.28171875 0.41007812 119.1875 0.4140625 C120.39212891 0.41913818 120.39212891 0.41913818 121.62109375 0.42431641 C124.39581752 0.93025801 125.0904686 1.52784972 126.75 3.8125 C127.12752342 6.92192078 127.12752342 6.92192078 127.13095093 10.8347168 C127.1356309 11.55386859 127.14031087 12.27302038 127.14513266 13.01396465 C127.15712391 15.43006882 127.14760965 17.8456101 127.13818359 20.26171875 C127.14224747 21.99126518 127.14758832 23.72080901 127.15411377 25.4503479 C127.16781507 30.15276554 127.16247715 34.8549862 127.15297651 39.55740738 C127.14539447 44.47276602 127.15242147 49.38810751 127.15713501 54.3034668 C127.16259681 62.5587874 127.15538982 70.81402755 127.14111328 79.06933594 C127.12478596 88.62095048 127.13007417 98.17237293 127.1465925 107.72398281 C127.16019528 115.91682044 127.16213295 124.10960015 127.15427649 132.30244541 C127.14959332 137.19917005 127.14899277 142.09580432 127.15888596 146.99252319 C127.16753579 151.59557486 127.16157014 156.19837827 127.14420319 160.80140305 C127.14022771 162.49332644 127.14139045 164.18527063 127.14799118 165.87718582 C127.15615515 168.18183614 127.1459484 170.48568438 127.13095093 172.7902832 C127.12981985 174.08150589 127.12868877 175.37272858 127.12752342 176.70307922 C126.75 179.8125 126.75 179.8125 125.36278725 181.71324158 C121.81268141 184.13295549 117.41112434 183.84233469 113.25 184.0625 C112.30640625 184.19140625 111.3628125 184.3203125 110.390625 184.453125 C106.89855047 184.605784 104.92214789 184.33225163 101.75 182.8125 C97.71094952 178.62864051 95.02399046 173.29773588 92.17907715 168.27374268 C89.8388459 164.24325557 87.23768064 160.39281219 84.6484375 156.51953125 C83.58281978 154.9047134 82.51822238 153.28922183 81.45458984 151.6730957 C80.91259949 150.85136871 80.37060913 150.02964172 79.81219482 149.18301392 C77.46066084 145.61777262 75.11072983 142.05147562 72.76065063 138.48527527 C71.54440365 136.63969106 70.3280746 134.79416094 69.11166382 132.94868469 C62.09411715 122.30176112 55.08634461 111.6484124 48.07958984 100.99438477 C47.06088406 99.44546759 46.04216659 97.8965581 45.0234375 96.34765625 C44.26672256 95.1971151 44.26672256 95.1971151 43.49472046 94.02333069 C40.15074482 88.93979484 36.80399224 83.85809571 33.45571899 78.77738953 C31.11700621 75.22844895 28.7790868 71.67898607 26.44122314 68.12948608 C25.32048533 66.42839869 24.19935563 64.72756943 23.07781982 63.02700806 C21.53006061 60.68011158 19.98363532 58.33234149 18.4375 55.984375 C17.97526031 55.28424789 17.51302063 54.58412079 17.03677368 53.86277771 C13.86386796 49.04023592 13.86386796 49.04023592 12.75 46.8125 C12.74668985 47.50125654 12.74337971 48.19001308 12.73996925 48.89964104 C12.65882991 65.64089255 12.56676754 82.38204445 12.46247292 99.12316704 C12.41230207 107.21897355 12.36585979 115.31476971 12.328125 123.41064453 C12.29523478 130.46512095 12.25542022 137.51951804 12.20720994 144.57390702 C12.18191524 148.31086342 12.16014289 152.047767 12.14665604 155.78478622 C12.1314888 159.95152988 12.10086596 164.11801975 12.06884766 168.28466797 C12.06668747 169.53047638 12.06452728 170.77628479 12.06230164 172.05984497 C12.05113815 173.19009094 12.03997467 174.32033691 12.0284729 175.48483276 C12.02294214 176.47115126 12.01741138 177.45746975 12.01171303 178.47367668 C11.75 180.8125 11.75 180.8125 9.75 182.8125 C6.45756396 183.26119661 3.13202257 183.13658242 -0.1875 183.125 C-1.56711914 183.14916992 -1.56711914 183.14916992 -2.97460938 183.17382812 C-4.30008789 183.17479492 -4.30008789 183.17479492 -5.65234375 183.17578125 C-6.46179443 183.17876221 -7.27124512 183.18174316 -8.10522461 183.18481445 C-10.89894742 182.69984834 -11.58374444 182.10923355 -13.25 179.8125 C-13.62752342 176.70307922 -13.62752342 176.70307922 -13.63095093 172.7902832 C-13.6356309 172.07113141 -13.64031087 171.35197962 -13.64513266 170.61103535 C-13.65712391 168.19493118 -13.64760965 165.7793899 -13.63818359 163.36328125 C-13.64224747 161.63373482 -13.64758832 159.90419099 -13.65411377 158.1746521 C-13.66781507 153.47223446 -13.66247715 148.7700138 -13.65297651 144.06759262 C-13.64539447 139.15223398 -13.65242147 134.23689249 -13.65713501 129.3215332 C-13.66259681 121.0662126 -13.65538982 112.81097245 -13.64111328 104.55566406 C-13.62478596 95.00404952 -13.63007417 85.45262707 -13.6465925 75.90101719 C-13.66019528 67.70817956 -13.66213295 59.51539985 -13.65427649 51.32255459 C-13.64959332 46.42582995 -13.64899277 41.52919568 -13.65888596 36.63247681 C-13.66753579 32.02942514 -13.66157014 27.42662173 -13.64420319 22.82359695 C-13.64022771 21.13167356 -13.64139045 19.43972937 -13.64799118 17.74781418 C-13.65615515 15.44316386 -13.6459484 13.13931562 -13.63095093 10.8347168 C-13.62981985 9.54349411 -13.62868877 8.25227142 -13.62752342 6.92192078 C-13.25 3.8125 -13.25 3.8125 -11.86101723 1.90481567 C-8.40807684 -0.43637649 -4.03419133 0.08530691 0 0 Z " fill="#000000" transform="translate(1029.25,19.1875)"/>
<path d="M0 0 C0.87914062 -0.00386719 1.75828125 -0.00773438 2.6640625 -0.01171875 C3.57929687 -0.00011719 4.49453125 0.01148438 5.4375 0.0234375 C6.81035156 0.00603516 6.81035156 0.00603516 8.2109375 -0.01171875 C9.09007812 -0.00785156 9.96921875 -0.00398437 10.875 0 C12.07962891 0.00507568 12.07962891 0.00507568 13.30859375 0.01025391 C16.09848104 0.51896042 16.78097242 1.08683459 18.4375 3.3984375 C18.73212378 5.95913431 18.8423626 8.27698958 18.81845093 10.83825684 C18.8231309 11.6023277 18.82781087 12.36639857 18.83263266 13.1536231 C18.84462796 15.721731 18.83510795 18.28930973 18.82568359 20.85742188 C18.82974729 22.69534111 18.83508803 24.5332579 18.84161377 26.37117004 C18.85531724 31.36902898 18.84997623 36.36670262 18.84047651 41.3645649 C18.8328956 46.5882226 18.83992115 51.81186415 18.84463501 57.03552246 C18.85009714 65.80870419 18.84288895 74.58181022 18.82861328 83.35498047 C18.81228591 93.50643845 18.81757409 103.65771569 18.8340925 113.80916929 C18.84769433 122.5158021 18.84963341 131.22238041 18.84177649 139.9290204 C18.8370928 145.1331456 18.83649419 150.33718577 18.84638596 155.54130554 C18.85503441 160.4332649 18.84907263 165.32499062 18.83170319 170.21692467 C18.82772697 172.01527709 18.82889168 173.81364908 18.83549118 175.61199379 C18.84365217 178.06113655 18.83345175 180.50952394 18.81845093 182.95861816 C18.82514309 183.67544061 18.83183526 184.39226306 18.83873022 185.1308074 C18.80411217 188.03149125 18.76539455 189.94087676 17.04674721 192.33916473 C14.90122863 193.7514334 13.43424519 193.78609166 10.875 193.796875 C9.99585938 193.80074219 9.11671875 193.80460938 8.2109375 193.80859375 C7.29570313 193.79699219 6.38046875 193.78539062 5.4375 193.7734375 C4.06464844 193.79083984 4.06464844 193.79083984 2.6640625 193.80859375 C1.78492188 193.80472656 0.90578125 193.80085937 0 193.796875 C-1.20462891 193.79179932 -1.20462891 193.79179932 -2.43359375 193.78662109 C-5.09536961 193.30127435 -5.97280847 192.56399145 -7.5625 190.3984375 C-7.93894848 187.76904545 -8.16383087 185.34771278 -8.25 182.7109375 C-8.28416016 182.00904297 -8.31832031 181.30714844 -8.35351562 180.58398438 C-8.43579947 178.85602363 -8.5008324 177.12725678 -8.5625 175.3984375 C-9.09875 175.9553125 -9.635 176.5121875 -10.1875 177.0859375 C-23.28565485 189.83940406 -39.30224978 195.52620007 -57.5625 195.7734375 C-76.54873723 195.51637046 -94.06306495 188.9639383 -107.5625 175.3984375 C-122.97437236 157.53895539 -127.93456438 135.4825601 -126.5625 112.3984375 C-124.61616033 92.37769967 -116.47941455 74.3251904 -100.92578125 61.16796875 C-94.87197597 56.56500411 -88.68666836 53.05490706 -81.5625 50.3984375 C-80.31726563 49.91890625 -80.31726563 49.91890625 -79.046875 49.4296875 C-61.86316778 44.00325364 -40.66845181 46.05655783 -24.75 54.1484375 C-11.20820064 62.10703623 -11.20820064 62.10703623 -8.5625 67.3984375 C-8.55370064 66.20573494 -8.55370064 66.20573494 -8.54472351 64.98893738 C-8.48684348 57.49914154 -8.41479442 50.00968017 -8.32678509 42.52018261 C-8.28203829 38.66964494 -8.24279202 34.81921412 -8.21606445 30.96850586 C-8.19007393 27.25302185 -8.14970265 23.5379481 -8.09931374 19.82271767 C-8.08261604 18.40458589 -8.07111983 16.98638311 -8.06488609 15.56816673 C-8.05527746 13.5833351 -8.02553716 11.59863168 -7.99487305 9.61401367 C-7.98376999 8.48372238 -7.97266693 7.35343109 -7.96122742 6.18888855 C-7.5625 3.3984375 -7.5625 3.3984375 -6.16853333 1.53422546 C-4.02842135 0.02073668 -2.60813123 0.01098932 0 0 Z M-84.5625 80.3984375 C-85.48482422 81.11580078 -85.48482422 81.11580078 -86.42578125 81.84765625 C-95.02267412 89.4152094 -99.85530306 101.6336638 -100.76342773 112.88867188 C-100.86526709 115.50014171 -100.89176766 118.09757714 -100.875 120.7109375 C-100.86936035 121.63374512 -100.8637207 122.55655273 -100.85791016 123.50732422 C-100.61397198 137.24756476 -96.70093093 148.91611967 -87.5625 159.3984375 C-76.97841493 168.61019388 -65.51340104 172.79851746 -51.5546875 172.609375 C-39.15808201 171.73546286 -27.80149639 166.74924136 -19.33984375 157.578125 C-8.05613797 143.74008583 -5.9261662 127.70986594 -7.5625 110.3984375 C-9.10619116 101.77804981 -12.59785874 94.55797278 -17.5625 87.3984375 C-18.284375 86.3465625 -19.00625 85.2946875 -19.75 84.2109375 C-30.20522509 73.75571241 -42.21131207 70.10757471 -56.54467773 70.08154297 C-67.34424606 70.25774702 -76.12142482 73.68802764 -84.5625 80.3984375 Z " fill="#000000" transform="translate(618.5625,9.6015625)"/>
<path d="M0 0 C4.16815511 3.10679546 8.31718436 6.31718436 12 10 C12.03738281 9.02417969 12.07476562 8.04835938 12.11328125 7.04296875 C12.17902344 5.77066406 12.24476563 4.49835938 12.3125 3.1875 C12.37050781 1.92292969 12.42851562 0.65835938 12.48828125 -0.64453125 C13.03069277 -4.20126023 13.23316517 -4.92439225 16 -7 C18.12890625 -7.38818359 18.12890625 -7.38818359 20.5625 -7.3984375 C21.44164062 -7.40230469 22.32078125 -7.40617187 23.2265625 -7.41015625 C24.14179688 -7.39855469 25.05703125 -7.38695312 26 -7.375 C27.37285156 -7.39240234 27.37285156 -7.39240234 28.7734375 -7.41015625 C29.65257812 -7.40628906 30.53171875 -7.40242188 31.4375 -7.3984375 C32.64212891 -7.39336182 32.64212891 -7.39336182 33.87109375 -7.38818359 C36.59785127 -6.89098813 37.32657582 -6.19528613 39 -4 C39.37752342 -1.48403931 39.37752342 -1.48403931 39.38095093 1.57958984 C39.3894104 2.74053162 39.39786987 3.90147339 39.40658569 5.09759521 C39.39747665 7.00994965 39.39747665 7.00994965 39.38818359 8.9609375 C39.39224834 10.31610538 39.39758968 11.67126995 39.40411377 13.02642822 C39.41780491 16.70823523 39.41248144 20.38979039 39.40297651 24.07160187 C39.39538917 27.92192776 39.40242295 31.77223187 39.40713501 35.62255859 C39.41259527 42.08890663 39.4053939 48.55515193 39.39111328 55.02148438 C39.37478619 62.50091727 39.38007451 69.98010484 39.3965925 77.45953178 C39.4101997 83.87744181 39.4121308 90.29527792 39.40427649 96.71319771 C39.39959573 100.54799547 39.3989861 104.38267788 39.40888596 108.21746826 C39.41754228 111.82248181 39.41155852 115.42717862 39.39420319 119.0321579 C39.38833405 120.98890241 39.39726528 122.94567367 39.40658569 124.90240479 C39.39389648 126.64381744 39.39389648 126.64381744 39.38095093 128.42041016 C39.37981985 129.43140778 39.37868877 130.4424054 39.37752342 131.48403931 C39 134 39 134 37.60924721 135.82446289 C35.468852 137.38799768 34.07323187 137.38733189 31.4375 137.3984375 C30.55835938 137.40230469 29.67921875 137.40617188 28.7734375 137.41015625 C27.85820312 137.39855469 26.94296875 137.38695312 26 137.375 C24.62714844 137.39240234 24.62714844 137.39240234 23.2265625 137.41015625 C22.34742188 137.40628906 21.46828125 137.40242187 20.5625 137.3984375 C19.35787109 137.39336182 19.35787109 137.39336182 18.12890625 137.38818359 C15.46713039 136.90283685 14.58969153 136.16555395 13 134 C12.62355152 131.37060795 12.39866913 128.94927528 12.3125 126.3125 C12.27833984 125.61060547 12.24417969 124.90871094 12.20898438 124.18554688 C12.12670053 122.45758613 12.0616676 120.72881928 12 119 C11.48953125 119.49628906 10.9790625 119.99257812 10.453125 120.50390625 C-4.20325004 134.19878151 -20.86657276 139.56431351 -40.75 139.203125 C-58.26028875 138.55165328 -74.61244293 131.44818133 -87 119 C-102.43047671 101.11895893 -107.33642286 79.10031661 -106 56 C-104.52135322 39.93132403 -99.54815019 25.41991067 -89 13 C-88.33355469 12.20980469 -87.66710937 11.41960937 -86.98046875 10.60546875 C-65.84571781 -12.41141214 -26.13448792 -16.20824151 0 0 Z M-64 24 C-64.92232422 24.71736328 -64.92232422 24.71736328 -65.86328125 25.44921875 C-74.46017412 33.0167719 -79.29280306 45.2352263 -80.20092773 56.49023438 C-80.30276709 59.10170421 -80.32926766 61.69913964 -80.3125 64.3125 C-80.30686035 65.23530762 -80.3012207 66.15811523 -80.29541016 67.10888672 C-80.05147198 80.84912726 -76.13843093 92.51768217 -67 103 C-56.41591493 112.21175638 -44.95090104 116.40007996 -30.9921875 116.2109375 C-18.59558201 115.33702536 -7.23899639 110.35080386 1.22265625 101.1796875 C12.50636203 87.34164833 14.6363338 71.31142844 13 54 C11.45630884 45.37961231 7.96464126 38.15953528 3 31 C2.278125 29.948125 1.55625 28.89625 0.8125 27.8125 C-9.64272509 17.35727491 -21.64881207 13.70913721 -35.98217773 13.68310547 C-46.78174606 13.85930952 -55.55892482 17.28959014 -64 24 Z " fill="#000000" transform="translate(410,66)"/>
<path d="M0 0 C9.56942988 7.36109991 16.58055484 16.80534867 21.09375 28 C21.48691406 28.97066406 21.88007812 29.94132812 22.28515625 30.94140625 C26.92119949 44.88184288 25.09375 56.34701537 25.09375 72 C-12.19625 72 -49.48625 72 -87.90625 72 C-84.25041943 86.62332227 -80.04213603 98.08234737 -67.03125 106.375 C-55.23416221 112.78065853 -42.47949466 113.7557916 -29.328125 111.34375 C-19.18263398 108.32611677 -11.33856281 102.05193447 -5.90625 93 C-5.14506832 91.2624668 -4.4223733 89.50758542 -3.73828125 87.73828125 C-3.39128174 86.84794189 -3.04428223 85.95760254 -2.68676758 85.0402832 C-2.30041138 84.03034302 -2.30041138 84.03034302 -1.90625 83 C1.69776481 82.91298961 5.30151012 82.85960612 8.90625 82.8125 C9.93041016 82.78736328 10.95457031 82.76222656 12.00976562 82.73632812 C12.99267578 82.72666016 13.97558594 82.71699219 14.98828125 82.70703125 C15.89425049 82.6913208 16.80021973 82.67561035 17.73364258 82.65942383 C20.09375 83 20.09375 83 21.9050293 84.3112793 C23.58284518 86.69481852 23.3341903 88.63847758 22.85546875 91.43359375 C18.0252763 107.70762678 7.00196256 120.40442923 -7.734375 128.56640625 C-26.94722459 137.76112713 -49.00675088 138.60578768 -69.12109375 131.93359375 C-86.02208705 125.34285891 -98.73060261 114.2784605 -106.90625 98 C-116.22452324 76.26691965 -116.55640344 51.42948949 -108.71875 29.1875 C-102.01798815 13.16567838 -90.50052707 0.66592178 -74.6328125 -6.47265625 C-50.35169861 -16.17944187 -21.88139863 -15.0581668 0 0 Z M-76.05859375 23.00390625 C-82.75418667 30.2374115 -87.90625 41.03641798 -87.90625 51 C-58.86625 51 -29.82625 51 0.09375 51 C-1.9579422 37.66400071 -4.55032109 27.77896642 -14.90625 19 C-34.45681097 6.52193185 -58.62751181 6.88968537 -76.05859375 23.00390625 Z " fill="#000000" transform="translate(1312.90625,69)"/>
<path d="M0 0 C9.56942988 7.36109991 16.58055484 16.80534867 21.09375 28 C21.48691406 28.97066406 21.88007813 29.94132812 22.28515625 30.94140625 C26.92119949 44.88184288 25.09375 56.34701537 25.09375 72 C-12.19625 72 -49.48625 72 -87.90625 72 C-84.25041943 86.62332227 -80.04213603 98.08234737 -67.03125 106.375 C-55.23416221 112.78065853 -42.47949466 113.7557916 -29.328125 111.34375 C-19.18263398 108.32611677 -11.33856281 102.05193447 -5.90625 93 C-5.14506832 91.2624668 -4.4223733 89.50758542 -3.73828125 87.73828125 C-3.39128174 86.84794189 -3.04428223 85.95760254 -2.68676758 85.0402832 C-2.30041138 84.03034302 -2.30041138 84.03034302 -1.90625 83 C1.69776481 82.91298961 5.30151012 82.85960612 8.90625 82.8125 C9.93041016 82.78736328 10.95457031 82.76222656 12.00976562 82.73632812 C12.99267578 82.72666016 13.97558594 82.71699219 14.98828125 82.70703125 C15.89425049 82.6913208 16.80021973 82.67561035 17.73364258 82.65942383 C20.09375 83 20.09375 83 21.9050293 84.3112793 C23.58284518 86.69481852 23.3341903 88.63847758 22.85546875 91.43359375 C18.0252763 107.70762678 7.00196256 120.40442923 -7.734375 128.56640625 C-26.94722459 137.76112713 -49.00675088 138.60578768 -69.12109375 131.93359375 C-86.02208705 125.34285891 -98.73060261 114.2784605 -106.90625 98 C-116.22452324 76.26691965 -116.55640344 51.42948949 -108.71875 29.1875 C-102.01798815 13.16567838 -90.50052707 0.66592178 -74.6328125 -6.47265625 C-50.35169861 -16.17944187 -21.88139863 -15.0581668 0 0 Z M-76.05859375 23.00390625 C-82.75418667 30.2374115 -87.90625 41.03641798 -87.90625 51 C-58.86625 51 -29.82625 51 0.09375 51 C-1.9579422 37.66400071 -4.55032109 27.77896642 -14.90625 19 C-34.45681097 6.52193185 -58.62751181 6.88968537 -76.05859375 23.00390625 Z " fill="#000000" transform="translate(243.90625,69)"/>
<path d="M0 0 C11.34277159 9.55180765 17.96880354 22.45924501 20.34765625 37 C20.63591351 40.54689156 20.68176586 44.06755665 20.66015625 47.625 C20.65278442 49.07024048 20.65278442 49.07024048 20.64526367 50.54467773 C20.22993374 76.08853356 9.28544471 97.88162046 -8.82421875 115.546875 C-27.01422509 131.3249468 -49.9121392 137.50431912 -73.65234375 136 C-90.19523043 133.83630627 -104.20098006 127.332974 -114.98828125 114.3984375 C-126.96693943 97.13342313 -128.56641839 77.52572755 -125.10644531 57.21337891 C-120.55351172 35.02149936 -108.23966179 14.83053246 -89.5546875 1.84765625 C-63.26545413 -14.97870647 -26.20505814 -19.75992602 0 0 Z M-81.76953125 25.8828125 C-94.77991664 40.51274794 -101.08677667 58.12339282 -100.86328125 77.58984375 C-100.17624183 88.69698103 -96.53321229 97.68943554 -88.33984375 105.3125 C-78.16779717 113.45013727 -66.1351041 113.96145185 -53.65234375 113 C-44.46830229 111.38500966 -37.14629744 107.41851378 -29.65234375 102 C-28.10546875 100.9171875 -28.10546875 100.9171875 -26.52734375 99.8125 C-14.77952409 89.3173297 -6.4441909 72.49753143 -5.52392578 56.81103516 C-4.90432891 43.75836588 -5.27749034 32.346868 -13.89453125 21.78125 C-22.07580159 13.49089606 -31.96926066 10.59468247 -43.33984375 10.015625 C-57.57190528 9.94849263 -71.55369035 15.90003261 -81.76953125 25.8828125 Z " fill="#5339D3" transform="translate(953.65234375,69)"/>
<path d="M0 0 C7.94556386 -1.61717701 16.21259353 -2.76758012 24 0 C30.59914133 5.57574508 34.22770545 13.89397266 38.10595703 21.45703125 C41.13583861 27.262926 44.8580318 32.62735062 48.5 38.0625 C49.76267975 39.98940434 51.02332066 41.91764738 52.28125 43.84765625 C53.18733642 45.23187793 54.09351749 46.61603768 55 48 C57.68963522 45.45130324 59.76889253 43.0334675 61.62890625 39.83203125 C62.10126709 39.02918701 62.57362793 38.22634277 63.06030273 37.39916992 C63.55602783 36.54556885 64.05175293 35.69196777 64.5625 34.8125 C68.56892939 28.02356976 72.64622691 21.3005855 76.9375 14.6875 C77.37328369 14.01372314 77.80906738 13.33994629 78.25805664 12.64575195 C79.08955831 11.37059081 79.93438545 10.10399775 80.79370117 8.84741211 C82.03930535 7.01160241 82.03930535 7.01160241 83.02856445 4.98266602 C84.19613502 2.89148304 85.1267398 1.50233411 87 0 C90.80623233 -0.84889919 94.43757239 -0.66310359 98.3125 -0.4375 C99.85260742 -0.39012695 99.85260742 -0.39012695 101.42382812 -0.34179688 C103.95215184 -0.25947936 106.4745986 -0.14459011 109 0 C110.31752635 2.17004339 111.06409288 3.43935814 110.77099609 6.00317383 C109.93174114 8.1767857 108.92182465 9.98719513 107.6640625 11.94921875 C107.18251709 12.70605957 106.70097168 13.46290039 106.20483398 14.24267578 C105.68348877 15.04946777 105.16214355 15.85625977 104.625 16.6875 C104.08625244 17.53038574 103.54750488 18.37327148 102.99243164 19.24169922 C101.33438408 21.83177674 99.66831622 24.41652735 98 27 C97.51611816 27.7513623 97.03223633 28.50272461 96.53369141 29.27685547 C93.82552157 33.48142003 91.10586057 37.67839965 88.38085938 41.87207031 C86.9434424 44.0871563 85.51022868 46.30491301 84.078125 48.5234375 C83.59698242 49.26803223 83.11583984 50.01262695 82.62011719 50.77978516 C81.67852924 52.23902183 80.73901196 53.69959709 79.80175781 55.16162109 C76.93881925 59.61333325 73.96328871 63.94575943 70.73046875 68.140625 C69.77682587 70.03981624 69.77682587 70.03981624 70.56640625 72.26953125 C72.42419088 75.80792758 74.5417366 79.10923363 76.75 82.4375 C77.74954795 83.96298504 78.7482024 85.48905579 79.74609375 87.015625 C80.2757373 87.82451172 80.80538086 88.63339844 81.35107422 89.46679688 C84.80054124 94.76612613 88.17756121 100.11183979 91.56616211 105.45019531 C94.68952331 110.36967152 97.82073955 115.28374987 100.96875 120.1875 C101.61223389 121.19208252 102.25571777 122.19666504 102.91870117 123.23168945 C104.1585046 125.16675457 105.40076202 127.10025014 106.64575195 129.03198242 C107.48046021 130.33679565 107.48046021 130.33679565 108.33203125 131.66796875 C108.82421143 132.43391357 109.3163916 133.1998584 109.82348633 133.98901367 C111 136 111 136 112 139 C111.234375 141.578125 111.234375 141.578125 109 144 C101.84095489 146.54988532 93.10892647 146.64498361 86 144 C79.84246035 138.9555692 76.45723363 131.37597213 72.85058594 124.43261719 C69.635827 118.46962107 65.88311164 112.86005519 62.1875 107.1875 C60.27616525 104.17822625 58.36612879 101.16814012 56.45776367 98.15698242 C55.04285068 95.91624089 55.04285068 95.91624089 53 94 C52.62415771 94.60134766 52.24831543 95.20269531 51.86108398 95.82226562 C50.71616046 97.65414326 49.57122067 99.48601072 48.42626953 101.31787109 C47.0898897 103.45614445 45.7536285 105.59449195 44.41748047 107.73291016 C41.20057877 112.88100735 37.98292689 118.0286221 34.7603302 123.17315674 C33.71632734 124.83987419 32.67273543 126.50684903 31.62915039 128.17382812 C30.30744148 130.28495582 28.98502878 132.39564308 27.66186523 134.50585938 C27.06446533 135.46041016 26.46706543 136.41496094 25.8515625 137.3984375 C25.32385254 138.24067871 24.79614258 139.08291992 24.25244141 139.95068359 C22.98467225 141.95996497 22.98467225 141.95996497 22 144 C14.74 144 7.48 144 0 144 C-3 138 -3 138 -2.48950195 135.90454102 C-2.07659912 135.27733154 -1.66369629 134.65012207 -1.23828125 134.00390625 C-0.78428955 133.28904053 -0.33029785 132.5741748 0.13745117 131.83764648 C0.64896729 131.08684814 1.1604834 130.3360498 1.6875 129.5625 C2.20352783 128.76465088 2.71955566 127.96680176 3.2512207 127.14477539 C4.81046815 124.74650318 6.40056862 122.37160584 8 120 C8.80310081 118.78973706 9.60527874 117.57886086 10.40625 116.3671875 C11.55371235 114.63812454 12.70478036 112.91186615 13.86474609 111.19116211 C18.10611993 104.89524363 22.2122424 98.5134494 26.3125 92.125 C26.99465576 91.06659912 27.67681152 90.00819824 28.37963867 88.91772461 C32.13597897 83.05228592 35.7192314 77.14524044 39 71 C38.58862793 70.35788574 38.17725586 69.71577148 37.75341797 69.05419922 C35.79360944 65.99468111 33.83421643 62.93489731 31.875 59.875 C31.51507965 59.31288818 31.1551593 58.75077637 30.78433228 58.17163086 C26.91776087 52.13218194 23.05446771 46.0907275 19.20703125 40.0390625 C18.32374146 38.64989624 18.32374146 38.64989624 17.42260742 37.23266602 C16.27116685 35.41923217 15.12157157 33.60462527 13.97387695 31.78881836 C11.25418246 27.49508245 8.50102304 23.23419554 5.6484375 19.02734375 C5.12677002 18.25003906 4.60510254 17.47273438 4.06762695 16.671875 C3.09439527 15.22710348 2.10927853 13.79023666 1.11010742 12.36328125 C-2.03597336 7.67058027 -2.03597336 7.67058027 -1.84765625 4.16015625 C-1 2 -1 2 0 0 Z " fill="#000000" transform="translate(1368,59)"/>
<path d="M0 0 C15.46375989 -0.11673803 30.92748687 -0.2049413 46.39158344 -0.25906086 C53.57167085 -0.28485617 60.75148467 -0.32003139 67.93139648 -0.37719727 C74.18853709 -0.42699242 80.44547961 -0.45928138 86.70281285 -0.47044247 C90.01698972 -0.47696815 93.33046674 -0.49494059 96.64449501 -0.52865028 C100.3418751 -0.56477467 104.03806848 -0.56995204 107.7355957 -0.56762695 C109.38852379 -0.59459152 109.38852379 -0.59459152 111.07484436 -0.62210083 C112.08025269 -0.61522751 113.08566101 -0.60835419 114.12153625 -0.60127258 C114.9963178 -0.60588155 115.87109934 -0.61049051 116.77238941 -0.61523914 C119 0 119 0 122 5 C121.01 10.61 120.02 16.22 119 22 C102.83 22 86.66 22 70 22 C69.24460937 26.61484375 68.48921875 31.2296875 67.7109375 35.984375 C63.29614504 62.63629829 58.50468152 89.2239146 53.76943374 115.82034063 C52.48118789 123.0564807 51.19522229 130.29302551 49.90939069 137.5295949 C47.27535267 152.35349506 44.6386317 167.17691676 42 182 C38.39598519 182.08701039 34.79223988 182.14039388 31.1875 182.1875 C30.16333984 182.21263672 29.13917969 182.23777344 28.08398438 182.26367188 C26.60961914 182.27817383 26.60961914 182.27817383 25.10546875 182.29296875 C23.74651489 182.31653442 23.74651489 182.31653442 22.36010742 182.34057617 C20 182 20 182 18.17072296 180.78160954 C16.58181328 178.36360226 16.81014179 177.0557744 17.16296387 174.20127869 C17.34229713 172.72487317 17.34229713 172.72487317 17.5252533 171.21864128 C18.38539407 165.38714294 19.35778732 159.58252038 20.39257812 153.77954102 C20.63779099 152.38547935 20.88260683 150.9913478 21.12705994 149.59715271 C21.78615586 145.84485453 22.45084634 142.09356774 23.11668968 138.34246182 C23.81466979 134.40512095 24.50766961 130.46690342 25.20129395 126.52879333 C26.36504505 119.92563864 27.5321842 113.32309033 28.70166016 106.72094727 C30.20237213 98.24875231 31.69751367 89.77558425 33.19089508 81.30209446 C34.47715695 74.00402183 35.76588109 66.70638435 37.05504417 59.40882373 C37.46856913 57.06743035 37.88177152 54.7259802 38.29493713 52.38452339 C38.94358838 48.7094996 39.59377314 45.03475022 40.24514961 41.36020851 C40.59775109 39.36930179 40.94897285 37.37815087 41.30015564 35.38699341 C41.61558067 33.61037575 41.61558067 33.61037575 41.93737793 31.79786682 C42.11951591 30.76868417 42.3016539 29.73950151 42.48931122 28.67913151 C42.91902377 26.42481051 43.41285895 24.21760268 44 22 C42.68281982 22.01571045 41.36563965 22.0314209 40.00854492 22.04760742 C35.12774761 22.10185386 30.246977 22.1363309 25.3659668 22.16479492 C23.25231446 22.1798936 21.13869352 22.20037426 19.02514648 22.22631836 C15.98934185 22.26265397 12.95395094 22.27971544 9.91796875 22.29296875 C8.4975251 22.31619453 8.4975251 22.31619453 7.04838562 22.33988953 C5.72735588 22.34022942 5.72735588 22.34022942 4.37963867 22.34057617 C3.60464523 22.34723801 2.82965179 22.35389984 2.03117371 22.36076355 C-0.55751882 21.90097722 -1.4452451 21.0912574 -3 19 C-3.14453125 16.07421875 -3.14453125 16.07421875 -2.8125 12.6875 C-2.71582031 11.57761719 -2.61914062 10.46773437 -2.51953125 9.32421875 C-2.00473605 6.03030361 -1.08893903 3.14261814 0 0 Z " fill="#5339D3" transform="translate(695,20)"/>
<path d="M0 0 C0.87914062 -0.00386719 1.75828125 -0.00773437 2.6640625 -0.01171875 C3.57929687 -0.00011719 4.49453125 0.01148437 5.4375 0.0234375 C6.81035156 0.00603516 6.81035156 0.00603516 8.2109375 -0.01171875 C9.52964844 -0.00591797 9.52964844 -0.00591797 10.875 0 C12.07962891 0.00507568 12.07962891 0.00507568 13.30859375 0.01025391 C15.4375 0.3984375 15.4375 0.3984375 17.2043457 1.48120117 C19.10559071 4.43714594 18.77307381 6.99324332 18.73046875 10.47265625 C18.72622391 11.1564888 18.72197906 11.84032135 18.71760559 12.5448761 C18.70083353 14.72563311 18.66318657 16.90546059 18.625 19.0859375 C18.60995114 20.56574185 18.59626308 22.0455607 18.58398438 23.52539062 C18.55093569 27.15004086 18.49916446 30.77414844 18.4375 34.3984375 C19.95887573 34.37487183 19.95887573 34.37487183 21.51098633 34.35083008 C25.27360087 34.29653431 29.03618078 34.26208899 32.79907227 34.23364258 C34.42771223 34.21855507 36.05631156 34.19808244 37.68481445 34.17211914 C40.02565535 34.13573301 42.36595919 34.1187113 44.70703125 34.10546875 C45.79936821 34.08224297 45.79936821 34.08224297 46.91377258 34.05854797 C49.82420109 34.05757883 51.91579618 34.05898204 54.39575195 35.67260742 C56.27691718 38.78907262 55.86554861 42.36775811 55.8125 45.8984375 C55.82410156 46.67058594 55.83570313 47.44273438 55.84765625 48.23828125 C55.81891302 53.76656297 55.81891302 53.76656297 54.39575195 56.12426758 C51.35178679 58.10487526 48.21575157 57.76601032 44.70703125 57.69140625 C43.95661057 57.68716141 43.20618988 57.68291656 42.43302917 57.67854309 C40.03831974 57.661762 37.64445466 57.6241124 35.25 57.5859375 C33.6256632 57.57088985 32.0013132 57.55720159 30.37695312 57.54492188 C26.39681052 57.51186055 22.41729837 57.46008344 18.4375 57.3984375 C18.49873932 68.89912954 18.57586617 80.39959518 18.67321491 91.90004158 C18.7179212 97.24031182 18.7571769 102.58050572 18.78393555 107.92089844 C18.80996573 113.0757493 18.85036647 118.23030645 18.90068626 123.38497543 C18.91735684 125.35048644 18.92886993 127.31604824 18.93511391 129.28162003 C18.94475281 132.03718018 18.97280978 134.79198857 19.00512695 137.54736328 C19.00369186 138.35800735 19.00225677 139.16865143 19.0007782 140.00386047 C19.08109629 144.85381518 19.79095204 148.17926617 22.4375 152.3984375 C28.67401593 156.91453525 38.72724835 155.71287537 46.08984375 155.91601562 C47.00378906 155.95017578 47.91773438 155.98433594 48.859375 156.01953125 C50.10605957 156.05711548 50.10605957 156.05711548 51.37792969 156.09545898 C53.4375 156.3984375 53.4375 156.3984375 55.4375 158.3984375 C55.69628906 160.24609375 55.69628906 160.24609375 55.703125 162.4609375 C55.70699219 163.65589844 55.70699219 163.65589844 55.7109375 164.875 C55.70320313 165.70773438 55.69546875 166.54046875 55.6875 167.3984375 C55.69910156 168.64753906 55.69910156 168.64753906 55.7109375 169.921875 C55.70835938 170.71851563 55.70578125 171.51515625 55.703125 172.3359375 C55.70086914 173.06683594 55.69861328 173.79773438 55.69628906 174.55078125 C55.4375 176.3984375 55.4375 176.3984375 53.4375 178.3984375 C49.02386848 178.80172985 44.59413053 178.72731935 40.1640625 178.71411133 C37.97343433 178.71098872 35.7842073 178.7342664 33.59375 178.75976562 C21.48267828 178.81524806 11.08294414 177.15899227 1.75 168.90625 C-6.62040651 160.1591752 -7.72807139 148.07328667 -7.67602539 136.52563477 C-7.67617142 135.66629837 -7.67631744 134.80696198 -7.6764679 133.92158508 C-7.67577545 131.10264495 -7.66801453 128.28377224 -7.66015625 125.46484375 C-7.65828969 123.50186703 -7.65686691 121.53888983 -7.65586853 119.57591248 C-7.65206206 114.42537129 -7.64224783 109.27485859 -7.63116455 104.12432861 C-7.62091013 98.86218654 -7.61636229 93.60003983 -7.61132812 88.33789062 C-7.60062381 78.02472711 -7.58356996 67.71158468 -7.5625 57.3984375 C-9.24279297 57.45064453 -9.24279297 57.45064453 -10.95703125 57.50390625 C-12.42967251 57.53204589 -13.90232998 57.55934587 -15.375 57.5859375 C-16.11298828 57.61107422 -16.85097656 57.63621094 -17.61132812 57.66210938 C-23.03384244 57.73571817 -23.03384244 57.73571817 -25.54931641 56.13085938 C-27.38342593 52.99475307 -26.99051284 49.42673642 -26.9375 45.8984375 C-26.94910156 45.12628906 -26.96070313 44.35414062 -26.97265625 43.55859375 C-26.94328082 37.9087199 -26.94328082 37.9087199 -25.2746582 35.67260742 C-22.34989036 33.49602631 -18.86816808 34.09195623 -15.375 34.2109375 C-14.25061523 34.23124023 -14.25061523 34.23124023 -13.10351562 34.25195312 C-11.25620233 34.28725211 -9.40925934 34.34105833 -7.5625 34.3984375 C-7.57821045 33.47506592 -7.5939209 32.55169434 -7.61010742 31.6003418 C-7.66124832 28.17303861 -7.69885535 24.74614108 -7.72729492 21.31860352 C-7.74237768 19.83546551 -7.76284689 18.35237206 -7.78881836 16.86938477 C-7.82522616 14.73703005 -7.84223073 12.60526515 -7.85546875 10.47265625 C-7.8711792 9.18963623 -7.88688965 7.90661621 -7.90307617 6.5847168 C-7.5625 3.3984375 -7.5625 3.3984375 -6.3293457 1.48120117 C-4.08498691 0.1058065 -2.62666206 0.0110674 0 0 Z " fill="#000000" transform="translate(1527.5625,23.6015625)"/>
<path d="M0 0 C0.88365234 0.00064453 1.76730469 0.00128906 2.67773438 0.00195312 C3.59748047 0.01806641 4.51722656 0.03417969 5.46484375 0.05078125 C6.38845703 0.04755859 7.31207031 0.04433594 8.26367188 0.04101562 C15.13529202 0.09622952 15.13529202 0.09622952 17.40234375 2.36328125 C17.64843941 5.09253883 17.64843941 5.09253883 17.64285278 8.64004517 C17.64456163 9.29103884 17.64627048 9.94203252 17.64803112 10.61275327 C17.65133721 12.80395763 17.64030423 14.9948588 17.62939453 17.18603516 C17.62883066 18.75281263 17.62914651 20.31959063 17.63027954 21.8863678 C17.63085499 26.14855611 17.61906973 30.41063258 17.60513163 34.67279482 C17.59265616 39.12376627 17.59145629 43.57474008 17.58908081 48.02572632 C17.58285666 56.45822634 17.56643322 64.8906747 17.54638183 73.32315195 C17.52405189 82.92155743 17.51303672 92.51996534 17.50299096 102.11839032 C17.48206778 121.86671617 17.44687368 141.61499546 17.40234375 161.36328125 C18.51987785 161.3532885 18.51987785 161.3532885 19.6599884 161.34309387 C26.67862461 161.28300092 33.69717182 161.23731623 40.71599293 161.20784473 C44.32452678 161.19218375 47.93284819 161.1709381 51.54125977 161.13696289 C55.02312497 161.10438408 58.50478576 161.0864315 61.98679161 161.07864952 C63.96276472 161.07040269 65.9386555 161.04698087 67.914505 161.02339172 C69.71603279 161.02305183 69.71603279 161.02305183 71.55395508 161.02270508 C72.6131868 161.01604324 73.67241852 161.00938141 74.76374817 161.0025177 C77.40234375 161.36328125 77.40234375 161.36328125 79.24516296 162.65190125 C81.23984375 165.60187834 80.79071532 168.99335133 80.71484375 172.42578125 C80.71806641 173.15861328 80.72128906 173.89144531 80.72460938 174.64648438 C80.66956314 180.09606186 80.66956314 180.09606186 78.40234375 182.36328125 C75.76842874 182.56695567 73.23921253 182.64648309 70.60375977 182.63793945 C69.79874023 182.64305038 68.9937207 182.64816132 68.16430664 182.65342712 C65.49487946 182.66736288 62.82570931 182.66636336 60.15625 182.6640625 C58.30541385 182.66794731 56.4545786 182.67228153 54.60374451 182.67704773 C50.72074496 182.68451856 46.83783632 182.68421248 42.95483398 182.67895508 C37.97330561 182.67316 32.99214899 182.69008814 28.01068211 182.71329975 C24.18716752 182.72801601 20.36374289 182.72891166 16.540205 182.72579002 C14.70335084 182.72630432 12.86649179 182.73156233 11.02966499 182.74160194 C8.4629702 182.75390807 5.89700496 182.74721001 3.33032227 182.7355957 C2.56813889 182.74323944 1.80595551 182.75088318 1.02067566 182.75875854 C-4.05920669 182.70782737 -4.05920669 182.70782737 -6.29249096 181.27878094 C-8.28874074 178.34902495 -7.97552668 175.85772502 -7.97860718 172.34106445 C-7.98328715 171.62191266 -7.98796712 170.90276087 -7.99278891 170.1618166 C-8.00478016 167.74571243 -7.9952659 165.33017115 -7.98583984 162.9140625 C-7.98990372 161.18451607 -7.99524457 159.45497224 -8.00177002 157.72543335 C-8.01547132 153.02301571 -8.0101334 148.32079505 -8.00063276 143.61837387 C-7.99305072 138.70301523 -8.00007772 133.78767374 -8.00479126 128.87231445 C-8.01025306 120.61699385 -8.00304607 112.3617537 -7.98876953 104.10644531 C-7.97244221 94.55483077 -7.97773042 85.00340832 -7.99424875 75.45179844 C-8.00785153 67.25896081 -8.0097892 59.0661811 -8.00193274 50.87333584 C-7.99724957 45.9766112 -7.99664902 41.07997693 -8.00654221 36.18325806 C-8.01519204 31.58020639 -8.00922639 26.97740298 -7.99185944 22.3743782 C-7.98788396 20.68245481 -7.9890467 18.99051062 -7.99564743 17.29859543 C-8.0038114 14.99394511 -7.99360465 12.69009687 -7.97860718 10.38549805 C-7.9774761 9.09427536 -7.97634502 7.80305267 -7.97517967 6.47270203 C-7.59765625 3.36328125 -7.59765625 3.36328125 -6.20789528 1.44766235 C-4.0493089 -0.00599157 -2.59091236 -0.00954153 0 0 Z " fill="#000000" transform="translate(20.59765625,19.63671875)"/>
</svg>
